HIERARCHY
ROOT Hips
{
	OFFSET 0.000000 0.000000 0.000000
	CHANNELS 6 Xposition Yposition Zposition Zrotation Yrotation Xrotation 
	JOINT LHipJoint
	{
		OFFSET 0.000000 0.000000 0.000000
		CHANNELS 3 Zrotation Yrotation Xrotation
		JOINT LeftUpLeg
		{
			OFFSET 1.363060 -1.794630 0.839290
			CHANNELS 3 Zrotation Yrotation Xrotation
			JOINT LeftLeg
			{
				OFFSET 2.448110 -6.726130 0.000000
				CHANNELS 3 Zrotation Yrotation Xrotation
				JOINT LeftFoot
				{
					OFFSET 2.562200 -7.039590 0.000000
					CHANNELS 3 Zrotation Yrotation Xrotation
					JOINT LeftToeBase
					{
						OFFSET 0.157640 -0.433110 2.322550
						CHANNELS 3 Zrotation Yrotation Xrotation
						End Site
						{
							OFFSET 0.000000 0.000000 0.000000
						}
					}
				}
			}
		}
	}
	JOINT RHipJoint
	{
		OFFSET 0.000000 0.000000 0.000000
		CHANNELS 3 Zrotation Yrotation Xrotation
		JOINT RightUpLeg
		{
			OFFSET -1.305520 -1.794630 0.839290
			CHANNELS 3 Zrotation Yrotation Xrotation
			JOINT RightLeg
			{
				OFFSET -2.542530 -6.985550 0.000000
				CHANNELS 3 Zrotation Yrotation Xrotation
				JOINT RightFoot
				{
					OFFSET -2.568260 -7.056230 0.000000
					CHANNELS 3 Zrotation Yrotation Xrotation
					JOINT RightToeBase
					{
						OFFSET -0.164730 -0.452590 2.363150
						CHANNELS 3 Zrotation Yrotation Xrotation
						End Site
						{
							OFFSET 0.000000 0.000000 0.000000
						}
					}
				}
			}
		}
	}
}
MOTION
Frames: 33
Frame Time: 0.008333
-0.148183 16.885102 -0.153611 -83.376902 86.656726 -64.495940 -13.102761 4.454302 1.945834 -6.822590 5.995299 -0.510298 -0.650135 0.774468 19.978541 0.148196 -2.344747 10.154458 -0.617200 -0.000001 -67.280600 6.888286 -2.625842 2.760775 15.712118 -2.472750 -40.717878 4.379749 -1.186643 19.501255 1.030616 5.802845 2.410408 0.591400 0.000000 -47.279300
0.065187 16.833936 -0.161387 -84.017939 86.558757 -65.407142 -13.253623 4.482677 1.899239 -6.351502 6.164853 -0.669447 -0.514073 0.900842 22.011989 0.170586 -2.931498 10.849434 -0.840600 0.000000 -66.376100 6.841251 -2.638337 2.628979 15.503928 -2.108859 -41.282157 4.082016 -1.600331 23.574403 0.827013 5.250489 0.051807 0.380200 -0.000000 -44.881100
0.271320 16.789710 -0.171972 -86.594836 86.461250 -68.295112 -13.442233 4.501452 1.836324 -5.773833 6.319601 -0.943920 -0.370972 1.038385 24.241897 0.205901 -3.553070 11.608898 -1.097700 -0.000000 -64.703300 6.780851 -2.632998 2.432942 15.384959 -1.961727 -41.479461 3.811922 -1.927704 27.121489 0.638369 4.750974 -2.023495 0.231001 0.000000 -43.326199
0.470738 16.753647 -0.185243 -91.072515 86.332443 -73.104990 -13.661803 4.512776 1.764453 -5.080270 6.447315 -1.356746 -0.227167 1.184879 26.637614 0.257177 -4.140552 12.388136 -1.368300 -0.000000 -62.349800 6.702307 -2.620316 2.188147 15.386767 -2.026832 -41.301365 3.588694 -2.158581 29.987383 0.467938 4.276920 -3.776748 0.127600 -0.000000 -42.729900
0.664245 16.726254 -0.200324 -97.142568 86.142261 -79.509141 -13.891201 4.521211 1.694692 -4.296773 6.518470 -1.917475 -0.091068 1.339468 29.153198 0.325488 -4.599926 13.138180 -1.618400 -0.000001 -59.487000 6.614130 -2.601977 1.907615 15.506215 -2.302004 -40.791341 3.418285 -2.297661 32.137022 0.314280 3.811068 -5.229366 0.057900 -0.000000 -43.016800
0.852660 16.707489 -0.215984 -104.299317 85.865380 -86.991678 -14.101476 4.530355 1.635711 -3.470979 6.500775 -2.614788 0.030257 1.502569 31.733825 0.409450 -4.832962 13.810690 -1.806000 -0.000000 -56.369600 6.534006 -2.574121 1.600698 15.711569 -2.784197 -40.009891 3.297467 -2.356928 33.610895 0.173027 3.340625 -6.433612 0.013500 -0.000000 -43.957300
1.036972 16.696894 -0.231206 -111.971819 85.473749 -94.973877 -14.268693 4.539357 1.592558 -2.642826 6.375008 -3.433825 0.134498 1.673643 34.329609 0.505919 -4.765339 14.358784 -1.891900 -0.000000 -53.297800 6.477389 -2.536053 1.279466 15.966200 -3.446925 -39.015127 3.219306 -2.350069 34.477013 0.037126 2.841965 -7.442574 -0.011600 -0.000001 -45.251699
1.218328 16.693727 -0.244950 -119.635779 84.956611 -102.923188 -14.373153 4.545197 1.569617 -1.862753 6.125202 -4.359005 0.223399 1.849750 36.895072 0.611671 -4.344239 14.738805 -1.843300 0.000000 -50.545400 6.459641 -2.487984 0.956895 16.220466 -4.256622 -37.872564 3.173919 -2.292598 34.832424 -0.099171 2.299019 -8.303583 -0.020600 0.000000 -46.598300
1.397818 16.697101 -0.256586 -126.902927 84.314481 -110.444508 -14.406671 4.542354 1.568192 -1.173087 5.750889 -5.376883 0.301615 2.025421 39.393386 0.723874 -3.555641 14.907288 -1.644400 -0.000000 -48.296100 6.488793 -2.433363 0.646223 16.430021 -5.166486 -36.642125 3.150637 -2.200037 34.785284 -0.239843 1.700676 -9.047918 -0.015400 -0.000001 -47.759800
1.576520 16.706105 -0.266074 -133.538212 83.560151 -117.293795 -14.372863 4.524516 1.587161 -0.604946 5.266455 -6.479137 0.374365 2.193560 41.795514 0.840350 -2.425260 14.823958 -1.301200 0.000000 -46.608400 6.564546 -2.377537 0.360795 16.560691 -6.117448 -35.377437 3.138719 -2.086683 34.445312 -0.386718 1.041536 -9.688604 0.002400 -0.000000 -48.603400
1.755282 16.719918 -0.273456 -139.476796 82.726145 -123.398099 -14.278912 4.488217 1.624216 -0.193785 4.693040 -7.658064 0.444658 2.347194 44.075770 0.959286 -1.008711 14.457037 -0.840600 -0.000000 -45.416100 6.686130 -2.322592 0.110284 16.578896 -7.058810 -34.133281 3.127125 -1.966386 33.932005 -0.537342 0.336172 -10.228430 0.030301 -0.000000 -49.098400
1.934711 16.737821 -0.279690 -144.685435 81.842047 -128.716023 -14.143765 4.429322 1.674440 0.057740 4.067757 -8.912120 0.513841 2.480957 46.216530 1.078454 0.600589 13.788216 -0.312899 0.000000 -44.570200 6.840769 -2.274051 -0.096145 16.482054 -7.926979 -32.943819 3.107780 -1.849252 33.337505 -0.689165 -0.406870 -10.653417 0.064100 0.000000 -49.311400
2.115025 16.759338 -0.285564 -149.233831 80.951370 -133.313029 -13.980109 4.348322 1.733012 0.137026 3.422649 -10.233645 0.580106 2.591779 48.199728 1.195521 2.302791 12.823397 0.224300 0.000000 -43.883900 7.022529 -2.231774 -0.256168 16.262623 -8.687368 -31.843415 3.074079 -1.744629 32.752975 -0.835107 -1.154555 -10.950042 0.097801 0.000000 -49.363200
2.296098 16.784147 -0.292116 -153.184375 80.091063 -137.251330 -13.802360 4.246302 1.794132 0.051788 2.791865 -11.614617 0.640409 2.679196 50.012312 1.307669 3.991996 11.593159 0.712700 0.000000 -43.185801 7.221606 -2.196826 -0.370952 15.931928 -9.315124 -30.846250 3.023281 -1.658095 32.234969 -0.967854 -1.875267 -11.098596 0.124200 0.000000 -49.406200
2.477539 16.812129 -0.300335 -156.609940 79.292840 -140.609134 -13.620986 4.125777 1.851940 -0.184164 2.203850 -13.042233 0.691143 2.744757 51.643273 1.412133 5.576775 10.152201 1.107500 -0.000000 -42.354500 7.430202 -2.169314 -0.446491 15.506187 -9.807570 -29.952306 2.955783 -1.592328 31.811880 -1.079565 -2.534096 -11.080542 0.135599 0.000000 -49.590700
2.658711 16.843332 -0.311039 -159.575921 78.578472 -143.462350 -13.443474 3.989543 1.900526 -0.550384 1.680719 -14.500482 0.729277 2.791453 53.084808 1.506591 6.989418 8.573218 1.384100 -0.000000 -41.344200 7.641350 -2.149274 -0.492314 15.005948 -10.179214 -29.146147 2.874804 -1.546822 31.480435 -1.163478 -3.100010 -10.880380 0.125400 -0.000000 -50.040099
2.838888 16.877860 -0.324654 -162.152979 77.959990 -145.896668 -13.273223 3.840910 1.934548 -1.026843 1.236999 -15.970451 0.752678 2.822848 54.331552 1.589383 8.192153 6.931146 1.540000 -0.000000 -40.127200 7.850587 -2.136128 -0.520161 14.449596 -10.459817 -28.401507 2.784979 -1.518735 31.214590 -1.214946 -3.549206 -10.489835 0.090000 0.000001 -50.830700
3.017439 16.915806 -0.341597 -164.380714 77.436906 -147.967897 -13.113665 3.682086 1.949336 -1.585286 0.882659 -17.434406 0.760818 2.842658 55.379759 1.660220 9.175101 5.303036 1.590399 -0.000000 -38.793000 8.051683 -2.130446 -0.541499 13.861507 -10.679029 -27.681429 2.691825 -1.502809 30.966038 -1.233682 -3.876269 -9.908064 0.028700 0.000000 -51.983300
3.193919 16.957210 -0.361672 -166.326926 77.002571 -149.761195 -12.962941 3.516136 1.941774 -2.211750 0.618339 -18.871654 0.753823 2.853539 56.225606 1.720059 9.956129 3.744954 1.560600 -0.000000 -37.371400 8.243728 -2.130953 -0.567740 13.252485 -10.876179 -26.951580 2.600109 -1.494131 30.688870 -1.221523 -4.081080 -9.147532 -0.054900 0.000000 -53.460900
3.368093 17.001929 -0.384856 -168.016749 76.641780 -151.315402 -12.821687 3.344798 1.910361 -2.883211 0.443559 -20.268299 0.732731 2.857757 56.866205 1.771170 10.567706 2.299767 1.478099 0.000000 -35.967100 8.422217 -2.138162 -0.606250 12.642673 -11.073856 -26.176317 2.513815 -1.486712 30.330797 -1.185123 -4.186487 -8.225981 -0.155600 0.000000 -55.186800
3.540075 17.049638 -0.410729 -169.500667 76.337724 -152.691944 -12.686625 3.170486 1.855774 -3.591990 0.349906 -21.609230 0.698440 2.855877 57.296061 1.817008 11.055346 0.985990 1.367100 -0.000000 -34.637900 8.587436 -2.151129 -0.662386 12.038551 -11.295615 -25.331353 2.435266 -1.476557 29.857939 -1.131527 -4.215607 -7.169712 -0.266600 -0.000000 -57.058200
3.710256 17.099780 -0.438967 -170.808106 76.072639 -153.926108 -12.555534 2.995362 1.780740 -4.329806 0.327707 -22.884979 0.651491 2.847775 57.509577 1.861290 11.463494 -0.198578 1.244400 0.000000 -33.423900 8.738668 -2.169766 -0.737143 11.448818 -11.550509 -24.401485 2.365416 -1.460458 29.247501 -1.068840 -4.199043 -6.005675 -0.382701 -0.000000 -58.966800
3.879300 17.151639 -0.469295 -171.969460 75.831491 -155.048563 -12.425367 2.821772 1.689971 -5.094511 0.363898 -24.089604 0.591789 2.832288 57.499644 1.907597 11.831055 -1.272362 1.118900 0.000000 -32.339901 8.876724 -2.194013 -0.828380 10.877682 -11.840152 -23.383846 2.303923 -1.436880 28.494004 -1.003919 -4.163663 -4.759587 -0.500400 0.000000 -60.817200
4.048039 17.204242 -0.501502 -173.008122 75.602324 -156.077912 -12.293317 2.652287 1.589802 -5.886419 0.443993 -25.221515 0.518569 2.807780 57.259297 1.958457 12.183429 -2.264823 0.992400 -0.000000 -31.368100 9.002812 -2.224162 -0.930967 10.327725 -12.157514 -22.287138 2.249504 -1.405671 27.607423 -0.941743 -4.129652 -3.453340 -0.618000 -0.000000 -62.537199
4.217413 17.256609 -0.535550 -173.942765 75.377769 -157.024205 -12.156820 2.489600 1.487502 -6.707258 0.552824 -26.283298 0.430531 2.772496 56.783337 2.014784 12.528865 -3.210325 0.861599 0.000000 -30.457400 9.118535 -2.260785 -1.037965 9.800555 -12.490071 -21.130016 2.200377 -1.367988 26.611151 -0.884876 -4.106785 -2.103556 -0.735000 -0.000000 -64.083400
4.388346 17.307638 -0.571599 -174.782508 75.153793 -157.884391 -12.014116 2.336372 1.391181 -7.557704 0.674255 -27.282205 0.326230 2.724868 56.070253 2.075546 12.857227 -4.141160 0.720400 -0.000000 -29.530300 9.225228 -2.304847 -1.141397 9.298389 -12.821875 -19.939045 2.154756 -1.325870 25.538230 -0.833808 -4.095134 -0.721912 -0.850900 -0.000000 -65.440901
4.561604 17.356349 -0.609858 -175.542174 74.929423 -158.661405 -11.863354 2.195358 1.308112 -8.439740 0.792175 -28.224360 0.204216 2.663640 55.121566 2.137995 13.144321 -5.081518 0.563300 -0.000001 -28.492800 9.325091 -2.356867 -1.234766 8.819651 -13.140867 -18.742302 2.111101 -1.282125 24.426889 -0.786937 -4.082995 0.684281 -0.963499 -0.000000 -66.625700
4.737820 17.401857 -0.650635 -176.226075 74.704517 -159.347833 -11.703898 2.068879 1.245475 -9.351253 0.890574 -29.119513 0.063686 2.588211 53.945061 2.197934 13.356047 -6.041209 0.387600 0.000000 -27.277700 9.419378 -2.417513 -1.312528 8.365314 -13.437008 -17.568469 2.068488 -1.239474 23.314411 -0.741908 -4.054051 2.111922 -1.069400 -0.000000 -67.680000
4.917426 17.443408 -0.694352 -176.835095 74.477762 -159.933622 -11.535862 1.958679 1.209522 -10.287003 0.954614 -29.979159 -0.095363 2.498559 52.554208 2.250534 13.457104 -7.014539 0.196200 0.000000 -25.866401 9.508864 -2.487239 -1.371338 7.937725 -13.706385 -16.443405 2.026737 -1.200245 22.233481 -0.696337 -3.990737 3.559478 -1.163000 0.000000 -68.649300
5.100643 17.480502 -0.741242 -177.374104 74.247126 -160.417138 -11.359529 1.866220 1.204519 -11.241805 0.972157 -30.810694 -0.272262 2.395080 50.964776 2.291078 13.418617 -7.981247 -0.002300 0.000001 -24.305900 9.594563 -2.565850 -1.411100 7.536606 -13.954118 -15.383318 1.986062 -1.166088 21.207225 -0.648362 -3.877405 5.027397 -1.238200 -0.000000 -69.588000
5.287464 17.512800 -0.791497 -177.846365 74.006941 -160.798642 -11.175629 1.792467 1.233306 -12.208933 0.934786 -31.620483 -0.465685 2.278489 49.195147 2.315754 13.223832 -8.912086 -0.195300 -0.000000 -22.711500 9.677088 -2.652777 -1.433677 7.162483 -14.191237 -14.397172 1.947008 -1.137559 20.247156 -0.597566 -3.706654 6.516415 -1.289300 -0.000000 -70.546900
5.477815 17.540189 -0.845141 -178.258407 73.749686 -161.084771 -10.984875 1.738205 1.296770 -13.182934 0.839238 -32.410177 -0.674250 2.149399 47.261521 2.322151 12.870502 -9.775984 -0.369000 -0.000000 -21.245800 9.757158 -2.747044 -1.442972 6.814591 -14.434577 -13.484935 1.910101 -1.114251 19.353587 -0.545092 -3.480940 8.027270 -1.313000 -0.000000 -71.582500
5.671456 17.562625 -0.901993 -178.615955 73.465950 -161.284505 -10.787915 1.703918 1.394155 -14.160371 0.688165 -33.178351 -0.896936 2.008092 45.176745 2.309482 12.369696 -10.547338 -0.512400 -0.000001 -20.088300 9.835239 -2.847519 -1.443823 6.493002 -14.703008 -12.640418 1.875872 -1.095000 18.519289 -0.493541 -3.213250 9.556500 -1.309200 -0.000000 -72.715700
